#!OML:ASF E:\emotionWalksFemale\Project 1\Capture day 1\Session 1\Female1.ASF
:FULLY-SPECIFIED
:DEGREES
498
root 9.03834 16.0683 10.0235 -307.852 -80.1211 -55.9772
lowerback 14.3546 1.70334 1.02925
upperback -4.19316 2.50496 0.157589
thorax -12.6888 1.09919 -1.03413
lowerneck -1.87407 -4.88482 -8.96774
upperneck 2.83313 -6.70861 11.0727
head 1.82396 -3.29167 4.61476
rclavicle -2.68359e-015 3.18055e-015
rhumerus 48.1068 -51.8928 -24.6141
rradius 55.9936
rwrist -22.1267
rhand -7.65409 -37.3619
rfingers 7.12502
rthumb 18.2416 -66.5265
lclavicle -2.68359e-015 3.18055e-015
lhumerus 79.8758 56.4325 41.0411
lradius 32.1938
lwrist 12.7292
lhand -13.9364 -46.4443
lfingers 7.12502
lthumb 12.1904 -16.8196
rfemur -0.164637 -0.380526 26.8358
rtibia 27.7569
rfoot 8.29842 -16.6675
rtoes -15.2904
lfemur -8.90429 -9.58873 -20.8733
ltibia 41.6222
lfoot -3.37998 2.48114
ltoes -16.6463
499
root 9.10616 15.835 9.88671 -312.661 -78.426 -50.9713
lowerback 15.3803 1.55406 1.13521
upperback -4.09269 2.35903 0.306971
thorax -13.198 1.02161 -0.925643
lowerneck -1.48699 -5.32761 -9.33624
upperneck 1.34977 -7.22928 11.5285
head 1.41 -3.57339 4.82028
rclavicle 9.0447e-015 -1.43125e-014
rhumerus 35.4611 -52.0782 -15.3211
rradius 59.4816
rwrist -24.9275
rhand -6.8028 -36.984
rfingers 7.12502
rthumb 19.0605 -66.07
lclavicle 9.0447e-015 -1.43125e-014
lhumerus 66.408 57.7188 29.7938
lradius 34.1399
lwrist 15.5715
lhand -13.2176 -48.3566
lfingers 7.12502
lthumb 12.8835 -18.7742
rfemur -1.2583 -3.90093 27.474
rtibia 30.85
rfoot 1.87164 -14.7921
rtoes -16.3572
lfemur -11.2086 -9.96911 -19.7467
ltibia 45.3339
lfoot -8.78278 2.84262
ltoes -5.37013
500
root 9.16748 15.623 9.74579 -316.63 -76.8818 -46.7738
lowerback 16.5595 1.36889 0.875765
upperback -3.9946 2.08957 0.445498
thorax -13.8179 0.915829 -0.586105
lowerneck -1.72993 -5.68227 -9.4345
upperneck 0.216639 -7.61143 11.8208
head 1.17563 -3.76702 4.91846
rclavicle -3.61788e-014 3.18055e-015
rhumerus 21.1038 -50.9885 -4.42792
rradius 63.7263
rwrist -29.1845
rhand -5.95381 -37.6335
rfingers 7.12502
rthumb 19.8768 -66.637
lclavicle -3.61788e-014 3.18055e-015
lhumerus 52.3896 57.686 18.8737
lradius 36.3289
lwrist 18.4406
lhand -12.5485 -47.2793
lfingers 7.12502
lthumb 13.5283 -17.7387
rfemur -2.55051 -6.59487 28.0444
rtibia 33.846
rfoot -4.08105 -13.0278
rtoes -23.0539
lfemur -13.2124 -10.4657 -18.7728
ltibia 48.094
lfoot -13.8491 2.56691
ltoes -1.03572
501
root 9.23619 15.3975 9.59882 -320.761 -75.6184 -42.1808
lowerback 17.6761 1.31818 0.245361
upperback -3.83336 1.88754 0.437649
thorax -14.3283 0.869542 -0.206161
lowerneck -2.30506 -6.22742 -9.63077
upperneck -0.972 -8.22518 12.2962
head 1.0197 -4.06967 5.06959
rclavicle -8.29926e-015 -2.06736e-014
rhumerus 8.4982 -48.7699 5.86086
rradius 66.6223
rwrist -33.1973
rhand -5.56541 -38.419
rfingers 7.12502
rthumb 20.2501 -67.3834
lclavicle -8.29926e-015 -2.06736e-014
lhumerus 41.3748 56.9451 11.5483
lradius 37.9685
lwrist 19.9042
lhand -11.8574 -48.0184
lfingers 7.12502
lthumb 14.1944 -18.5234
rfemur -3.9743 -7.44056 28.2224
rtibia 36.2054
rfoot -9.93196 -13.6363
rtoes -24.8003
lfemur -15.2494 -10.8645 -18.1895
ltibia 50.4151
lfoot -18.4959 2.58734
ltoes -2.12755
502
root 9.31038 15.1884 9.45322 -325.462 -74.678 -36.648
lowerback 18.398 1.30838 -0.827727
upperback -3.56689 1.57497 0.123675
thorax -14.4715 0.797833 0.130794
lowerneck -2.9492 -6.82267 -9.44786
upperneck -2.48 -8.89129 12.7491
head 0.774623 -4.40912 5.15353
rclavicle 6.52883e-015 -1.27222e-014
rhumerus 0.0293905 -46.5085 11.6211
rradius 68.02
rwrist -35.1697
rhand -5.44932 -38.8252
rfingers 7.12502
rthumb 20.3616 -67.7777
lclavicle 6.52883e-015 -1.27222e-014
lhumerus 30.784 55.4375 4.22995
lradius 39.0569
lwrist 21.5963
lhand -11.6912 -49.0648
lfingers 7.12502
lthumb 14.3546 -19.5811
rfemur -5.53912 -8.33206 27.9625
rtibia 38.0455
rfoot -14.4392 -14.3375
rtoes -25.2896
lfemur -17.4217 -11.4172 -18.171
ltibia 52.2961
lfoot -22.7725 3.1222
ltoes -4.87859
503
root 9.3785 14.9922 9.31295 -324.067 -72.8666 -36.1879
lowerback 17.7616 1.08816 -0.451339
upperback -3.58187 1.39445 0.283716
thorax -14.0967 0.694404 0.163727
lowerneck -3.25732 -7.22527 -9.79752
upperneck -4.21538 -9.29072 13.6084
head 0.429226 -4.63365 5.47771
rclavicle 1.68967e-014 0
rhumerus -6.08639 -44.4513 13.9469
rradius 69.18
rwrist -35.563
rhand -5.00494 -38.2522
rfingers 7.12502
rthumb 20.7887 -67.1586
lclavicle 1.68967e-014 0
lhumerus 17.6032 50.805 -5.89302
lradius 40.165
lwrist 26.0636
lhand -11.9094 -49.0294
lfingers 7.12502
lthumb 14.1443 -19.5308
rfemur -8.10381 -9.31922 29.7019
rtibia 39.1072
rfoot -18.7011 -15.2374
rtoes -24.6701
lfemur -21.049 -12.0303 -16.1656
ltibia 54.3224
lfoot -26.7661 3.77719
ltoes -8.93832
504
root 9.43824 14.8102 9.17988 -322.778 -71.1879 -35.6244
lowerback 17.0666 0.843963 -0.153823
upperback -3.58576 1.16133 0.480996
thorax -13.6779 0.574953 0.294329
lowerneck -3.42664 -7.45804 -10.3526
upperneck -6.06121 -9.4476 14.6866
head 0.0311002 -4.75029 5.92684
rclavicle 4.25399e-014 -2.22639e-014
rhumerus -11.5775 -42.2635 15.0634
rradius 70.4568
rwrist -35.895
rhand -4.49298 -37.6327
rfingers 7.12502
rthumb 21.2805 -66.4844
lclavicle 4.25399e-014 -2.22639e-014
lhumerus 7.6712 48.0966 -10.9367
lradius 43.5616
lwrist 27.3484
lhand -11.2378 -47.3602
lfingers 7.12502
lthumb 14.7914 -17.9081
rfemur -10.6156 -10.0889 31.4743
rtibia 39.8918
rfoot -23.0384 -16.2854
rtoes -24.1397
lfemur -24.5728 -12.9108 -14.2127
ltibia 56.2037
lfoot -30.484 4.4702
ltoes -11.9702
505
root 9.49764 14.6428 9.05748 -322.682 -69.836 -34.0075
lowerback 16.7651 0.539919 -0.197892
upperback -3.57923 0.74573 0.500884
thorax -13.4853 0.38779 0.462255
lowerneck -3.82346 -7.64002 -10.3301
upperneck -7.82722 -9.53953 15.2296
head -0.370873 -4.83852 6.11858
rclavicle -6.95746e-016 4.45278e-014
rhumerus -16.0013 -40.4878 14.4002
rradius 71.5101
rwrist -35.6895
rhand -4.15347 -38.007
rfingers 7.12502
rthumb 21.6066 -66.8216
lclavicle -6.95746e-016 4.45278e-014
lhumerus -1.99044 42.7645 -15.9358
lradius 45.5776
lwrist 31.1202
lhand -11.2264 -46.9761
lfingers 7.12502
lthumb 14.8024 -17.5248
rfemur -12.9736 -10.5479 32.7649
rtibia 40.5992
rfoot -26.1683 -17.8849
rtoes -25.0937
lfemur -27.8571 -13.7771 -12.7902
ltibia 57.9742
lfoot -33.7397 5.01561
ltoes -14.0125
506
root 9.56296 14.48 8.93957 -323.328 -68.7359 -31.7041
lowerback 16.8615 0.221535 -0.536035
upperback -3.64351 0.234877 0.428725
thorax -13.6132 0.175518 0.717465
lowerneck -4.33904 -7.83335 -10.2284
upperneck -9.34415 -9.66492 15.5326
head -0.695817 -4.93747 6.21492
rclavicle 4.96962e-015 -9.54166e-015
rhumerus -20.0087 -38.9918 12.8291
rradius 72.5863
rwrist -35.5236
rhand -3.66625 -38.7193
rfingers 7.12502
rthumb 22.0744 -67.4793
lclavicle 4.96962e-015 -9.54166e-015
lhumerus -9.47089 38.0979 -18.0431
lradius 47.322
lwrist 34.3718
lhand -9.07455 -44.4481
lfingers 7.12502
lthumb 16.8747 -15.1613
rfemur -15.4564 -10.5136 33.6536
rtibia 41.7645
rfoot -28.233 -20.4389
rtoes -25.995
lfemur -31.0269 -14.2256 -11.8325
ltibia 59.6488
lfoot -35.7082 5.58683
ltoes -16.6753
507
root 9.61969 14.4496 8.82881 -323.671 -67.6237 -29.6474
lowerback 17.158 0.0013947 -0.591998
upperback -3.77663 -0.0834071 0.361476
thorax -13.9423 0.03145 0.766096
lowerneck -4.42004 -8.11427 -10.4656
upperneck -11.3241 -9.89642 15.942
head -1.18775 -5.11002 6.43292
rclavicle 5.32743e-014 3.02153e-014
rhumerus -24.0944 -37.6298 11.1881
rradius 73.6167
rwrist -35.4467
rhand -2.99721 -39.3336
rfingers 7.12502
rthumb 22.7166 -68.0163
lclavicle 5.32743e-014 3.02153e-014
lhumerus -12.7484 36.0744 -16.3823
lradius 46.66
lwrist 34.9109
lhand -9.06092 -44.7008
lfingers 7.12502
lthumb 16.8878 -15.4151
rfemur -18.7294 -10.686 34.7562
rtibia 43.8209
rfoot -29.1827 -21.4991
rtoes -23.2825
lfemur -34.5174 -14.0198 -11.0386
ltibia 61.4724
lfoot -36.117 6.6961
ltoes -22.8779
508
root 9.69489 14.3847 8.71971 -323.757 -66.6413 -27.8817
lowerback 17.7528 -0.0820035 -0.560667
upperback -3.92646 -0.189452 0.375338
thorax -14.4777 -0.0156306 0.799195
lowerneck -4.58956 -8.40811 -11.1963
upperneck -13.3131 -10.1045 16.8499
head -1.60633 -5.26667 6.8908
rclavicle 2.127e-014 -2.8625e-014
rhumerus -28.2845 -36.5126 9.5404
rradius 74.0115
rwrist -35.6014
rhand -2.54792 -39.5159
rfingers 7.12502
rthumb 23.1478 -68.1452
lclavicle 2.127e-014 -2.8625e-014
lhumerus -16.3447 33.9116 -13.7306
lradius 46.3451
lwrist 35.0592
lhand -7.56307 -44.9775
lfingers 7.12502
lthumb 18.3292 -15.8211
rfemur -22.5974 -10.4074 35.7412
rtibia 46.7277
rfoot -30.3284 -22.3808
rtoes -21.4096
lfemur -38.3591 -14.0463 -10.2421
ltibia 63.6169
lfoot -35.9365 6.48991
ltoes -23.8812
509
root 9.78742 14.2561 8.61482 -323.243 -65.7939 -26.7243
lowerback 18.3507 -0.177711 -0.445371
upperback -3.99818 -0.278443 0.478944
thorax -14.9252 -0.0571105 0.882927
lowerneck -5.20251 -8.61534 -11.3067
upperneck -15.0519 -10.2375 17.0193
head -1.97832 -5.369 7.00251
rclavicle 1.07344e-014 -7.95139e-015
rhumerus -31.6921 -35.547 7.19694
rradius 74.0802
rwrist -36.4901
rhand -3.08993 -39.4886
rfingers 7.12502
rthumb 22.6277 -68.1823
lclavicle 1.07344e-014 -7.95139e-015
lhumerus -20.098 31.4835 -10.7576
lradius 46.3962
lwrist 35.2099
lhand -5.94773 -44.4868
lfingers 7.12502
lthumb 19.8826 -15.4839
rfemur -26.8346 -9.01921 36.6939
rtibia 50.1759
rfoot -30.5387 -24.3385
rtoes -19.2304
lfemur -42.6198 -13.969 -9.31248
ltibia 66.1463
lfoot -35.6375 5.20193
ltoes -20.7881
510
root 9.885 14.1154 8.51403 -322.456 -65.0813 -25.9658
lowerback 18.9456 -0.372137 -0.174838
upperback -3.97396 -0.468757 0.516091
thorax -15.2572 -0.163407 0.836326
lowerneck -5.76294 -8.69524 -11.148
upperneck -16.7614 -10.2349 17.0522
head -2.39803 -5.41771 7.04335
rclavicle 3.18055e-014 9.54166e-015
rhumerus -34.3037 -34.8296 3.83011
rradius 73.5989
rwrist -37.8436
rhand -2.37312 -41.3061
rfingers 7.12502
rthumb 23.3155 -69.9143
lclavicle 3.18055e-014 9.54166e-015
lhumerus -23.8221 29.4179 -7.59089
lradius 46.4349
lwrist 34.5149
lhand -5.17848 -42.9253
lfingers 7.12502
lthumb 20.6219 -14.0008
rfemur -30.8263 -7.58198 37.5312
rtibia 53.5449
rfoot -30.8013 -26.1169
rtoes -17.6444
lfemur -46.69 -13.6727 -8.4068
ltibia 68.6754
lfoot -35.3513 3.77313
ltoes -17.0514
511
root 9.9717 14.0053 8.42108 -322.207 -64.6704 -25.1073
lowerback 19.748 -0.560344 0.0459969
upperback -3.79434 -0.681175 0.400652
thorax -15.5309 -0.285028 0.654932
lowerneck -5.96175 -8.70778 -11.156
upperneck -18.5662 -10.1415 17.405
head -2.88538 -5.4447 7.24513
rclavicle 2.14687e-014 3.81667e-014
rhumerus -36.167 -34.2931 -0.380398
rradius 72.4982
rwrist -39.2685
rhand -2.34177 -42.2848
rfingers 7.12502
rthumb 23.3456 -70.8891
lclavicle 2.14687e-014 3.81667e-014
lhumerus -26.9253 28.1549 -4.03297
lradius 45.9134
lwrist 32.2069
lhand -4.35156 -42.7939
lfingers 7.12502
lthumb 21.4163 -13.9576
rfemur -33.7899 -6.07066 37.8759
rtibia 56.313
rfoot -31.8521 -27.2276
rtoes -15.6685
lfemur -49.7498 -13.2597 -7.97803
ltibia 70.7376
lfoot -35.1351 2.92925
ltoes -15.4374
